<svg width="117" height="38" viewBox="0 0 117 38" fill="none" xmlns="http://www.w3.org/2000/svg">
<mask id="mask0_104_332" style="mask-type:luminance" maskUnits="userSpaceOnUse" x="0" y="0" width="117" height="38">
<path d="M0 0H116.783V37.492H0V0Z" fill="white"/>
</mask>
<g mask="url(#mask0_104_332)">
<path fill-rule="evenodd" clip-rule="evenodd" d="M59.8603 35.9261C58.1638 34.3338 56.5084 33.233 54.8772 32.585C67.7918 22.9888 73.8045 10.8348 72.7001 6.35218C70.8948 16.8367 59.522 28.8985 54.8699 32.5807C53.4562 32.0185 52.0593 31.7975 50.6722 31.8919C54.5702 27.0981 58.2847 7.96585 56.0347 3.38664C57.8376 4.18489 59.7177 5.4917 62.8932 5.04108C58.9613 4.01322 57.4823 2.95747 54.1618 1.08201C57.5089 11.3198 52.9946 26.5166 50.4498 31.9091C49.4517 32.0013 48.4561 32.2567 47.4628 32.6665C47.5595 25.5788 38.4656 5.88224 32.784 2.71714C36.1432 2.75362 38.6106 2.14206 41.6459 1.31591C43.7315 4.5132 45.1477 8.3242 46.2617 12.0966C45.8557 7.97229 44.0747 3.85872 42.3757 0.0219727C37.8832 1.18931 33.8763 1.51333 29.3837 1.53049C39.5168 9.37995 45.7059 25.9608 47.168 32.7953C46.5227 33.0828 45.8775 33.4326 45.2322 33.8446C42.1341 27.9478 22.5301 14.2961 15.6208 14.1265C18.5353 12.6416 19.8258 11.2168 21.967 9.13747C25.5944 10.9528 31.0561 15.3196 34.1736 18.0684C31.4669 14.6995 25.5147 10.0173 21.8558 7.47874C18.6537 10.5108 15.3864 12.5966 11.527 14.6372C25.0772 16.8839 40.3047 28.9027 45.0993 33.9304C44.7175 34.1793 44.3357 34.4476 43.9538 34.7394C31.1842 31.2846 18.1511 30.3941 2.79074 35.278C4.45099 33.085 5.05757 31.1087 5.09624 28.9178C12.3003 27.6045 20.6789 26.5616 30.4761 26.9758C23.2067 25.6282 13.0567 25.4115 4.0039 27.5144C3.24749 31.5421 1.7274 34.6686 -0.00292969 37.5419C16.863 32.2996 31.2567 32.2545 44.5604 36.7887C50.0656 32.9777 55.2469 32.9412 59.1329 36.896C74.7567 36.0097 101.067 35.4347 116.688 36.572C103.085 35.1171 76.7045 35.0806 59.8603 35.9261Z" fill="#DB6956"/>
</g>
<path d="M72.0586 24.4254C72.252 24.5627 72.455 24.7129 72.6676 24.8717C72.8851 25.0262 73.0446 25.1443 73.1413 25.2237V25.3267C73.1413 26.1228 72.9697 26.7901 72.629 27.3266C72.2858 27.8587 71.8556 28.275 71.3336 28.5712C70.9204 28.8072 70.4854 28.966 70.0286 29.0518C69.5767 29.1377 69.2215 29.1806 68.9653 29.1806C68.8928 29.1806 68.7961 29.1291 68.6753 29.0261C68.5593 28.9188 68.4433 28.7986 68.3273 28.6656C68.2113 28.5282 68.1098 28.4081 68.0276 28.3051C67.9503 28.1978 67.9116 28.142 67.9116 28.142C67.9116 28.142 67.9793 28.1549 68.1146 28.1763C68.25 28.1935 68.4578 28.2021 68.743 28.2021C68.871 28.2021 69.0571 28.1763 69.3036 28.1248C69.5477 28.069 69.8111 27.9768 70.0963 27.8502C70.379 27.7257 70.6473 27.5497 70.8986 27.3266C71.1548 27.0991 71.365 26.8094 71.527 26.4597C71.6937 26.112 71.7783 25.6914 71.7783 25.1979C71.7783 24.9919 71.7638 24.8674 71.7396 24.8202C71.713 24.7687 71.701 24.743 71.701 24.743L70.338 25.0177L70.2703 24.8288C70.2703 24.8288 70.3597 24.7838 70.541 24.6915C70.727 24.5949 70.9276 24.4683 71.1403 24.3138C71.365 24.1486 71.5584 23.9705 71.7203 23.7817C71.8798 23.5928 72.0055 23.3332 72.0973 23.0006C72.194 22.6637 72.2423 22.1916 72.2423 21.5843C72.2423 21.4298 72.2326 21.3268 72.2133 21.2753C72.194 21.2195 72.1746 21.1873 72.1553 21.1809V21.1981C72.1553 21.1981 72.032 21.3247 71.788 21.5757C71.5415 21.8289 71.2394 22.168 70.8793 22.5972C70.5168 23.022 70.1567 23.4984 69.7966 24.0306C69.584 24.3524 69.352 24.7172 69.1006 25.1292C68.8493 25.5369 68.6004 25.9511 68.3563 26.3738C68.1098 26.7987 67.885 27.1871 67.6796 27.5412C67.479 27.8974 67.3147 28.1828 67.1866 28.3995C67.0634 28.6184 67.003 28.7257 67.003 28.7257C66.9377 28.8759 66.8894 28.9896 66.858 29.069C66.8241 29.1419 66.8096 29.1806 66.8096 29.1806C66.7444 29.1334 66.6888 29.1033 66.6453 29.0862C66.6066 29.0647 66.5535 29.0347 66.4906 29.0003C66.4326 28.9617 66.3456 28.893 66.2296 28.7943C66.1064 28.7042 65.9976 28.6098 65.901 28.5111C65.8091 28.4081 65.7656 28.3566 65.7656 28.3566L68.6753 20.2539C68.6753 20.2539 68.7236 20.2839 68.8203 20.3397C68.917 20.3977 69.0354 20.4685 69.178 20.5543C69.3254 20.6402 69.4631 20.726 69.5936 20.8118C69.729 20.8934 69.828 20.962 69.8933 21.0178C69.9755 21.0758 70.0286 21.1208 70.048 21.1552C70.0673 21.1852 70.077 21.2281 70.077 21.2839C70.077 21.3526 70.0238 21.5307 69.9223 21.8161C69.8184 22.1036 69.6806 22.4598 69.5066 22.889C69.3326 23.3139 69.1393 23.7774 68.9266 24.2795C68.714 24.7773 68.5013 25.2816 68.2886 25.7902C68.494 25.4361 68.7333 25.0391 69.004 24.5971C69.2746 24.1572 69.5598 23.7087 69.8643 23.2495C70.1736 22.786 70.4733 22.3611 70.7633 21.9706C71.0533 21.5757 71.324 21.2539 71.5753 21.0007C71.8315 20.7496 72.0441 20.6123 72.2133 20.5887H72.252C72.2568 20.5887 72.264 20.5929 72.2713 20.5972C72.2761 20.5972 72.2834 20.5972 72.2906 20.5972C72.3728 20.6273 72.4888 20.6809 72.6386 20.7603C72.786 20.8354 72.9335 20.9191 73.0833 21.0092C73.2307 21.0951 73.3467 21.1766 73.4313 21.2496C73.47 21.2839 73.5038 21.3848 73.5376 21.55C73.5763 21.7109 73.5956 21.9105 73.5956 22.1508C73.5956 22.7474 73.4555 23.228 73.18 23.5928C72.902 23.9598 72.5275 24.2366 72.0586 24.4254Z" fill="#DB6956"/>
<path d="M77.1014 29.1806C77.0362 29.1741 76.9033 29.1419 76.7051 29.0862C76.5118 29.0239 76.3112 28.9488 76.1058 28.863C75.9052 28.7729 75.7602 28.687 75.6708 28.6055C75.6514 28.5883 75.5886 28.5089 75.4871 28.3652C75.3904 28.2171 75.2793 28.0304 75.1584 27.8072C75.0352 27.5798 74.9289 27.333 74.8394 27.0691C74.7476 26.8073 74.7041 26.5584 74.7041 26.3223C74.7041 25.5284 74.8153 24.8245 75.0424 24.2108C75.2744 23.5993 75.5765 23.0692 75.9511 22.6229C76.3233 22.1766 76.7293 21.8032 77.1691 21.4985C77.6065 21.1959 78.0391 20.9534 78.4644 20.7689C78.8898 20.5801 79.2692 20.4492 79.6051 20.3741C79.9386 20.2947 80.1779 20.2539 80.3204 20.2539C80.3978 20.2539 80.4944 20.3097 80.6104 20.417C80.7264 20.52 80.8424 20.6444 80.9584 20.7861C81.0744 20.9234 81.1711 21.0479 81.2484 21.1552C81.3258 21.2582 81.3644 21.3097 81.3644 21.3097C80.9971 21.2131 80.5863 21.2388 80.1368 21.3869C79.6921 21.5371 79.2474 21.7796 78.8028 22.1165C78.3581 22.4491 77.9545 22.8547 77.5944 23.3353C77.2319 23.816 76.9492 24.3482 76.7438 24.9318C76.5432 25.5112 76.4538 26.1206 76.4731 26.7601C76.4973 27.4017 76.6785 28.0454 77.0144 28.6913C77.0144 28.6913 77.0193 28.6913 77.0338 28.6913C77.0459 28.687 77.0579 28.6784 77.0724 28.6656C77.1546 28.6377 77.3189 28.554 77.5654 28.4167C77.8095 28.2793 78.1019 28.0712 78.4451 27.7901C78.7859 27.5047 79.1508 27.1292 79.5374 26.6657C79.9289 26.1979 80.3229 25.6185 80.7168 24.9318C80.9415 24.5155 81.0841 24.1207 81.1421 23.7473C81.2049 23.3697 81.2219 23.0392 81.1904 22.7517C81.1566 22.4663 81.1131 22.2409 81.0551 22.0736C81.0019 21.9019 80.9778 21.8161 80.9778 21.8161L81.3644 21.7045C81.3644 21.7045 81.3886 21.7989 81.4418 21.9877C81.4998 22.1723 81.5433 22.4212 81.5771 22.7345C81.6085 23.0499 81.6013 23.404 81.5578 23.7988C81.5119 24.1937 81.3838 24.6035 81.1711 25.0262C80.7506 25.891 80.2721 26.6056 79.7308 27.1721C79.1943 27.7343 78.7061 28.172 78.2614 28.4853C78.1696 28.5669 78.0729 28.6398 77.9714 28.7085C77.7588 28.8523 77.5654 28.9638 77.3914 29.0432C77.2223 29.1226 77.1256 29.1677 77.1014 29.1806Z" fill="#DB6956"/>
<path d="M85.1053 29.1806C85.0401 29.1741 84.9072 29.1419 84.709 29.0862C84.5157 29.0239 84.3151 28.9488 84.1097 28.863C83.9091 28.7729 83.7641 28.687 83.6747 28.6055C83.6553 28.5883 83.5925 28.5089 83.491 28.3652C83.3943 28.2171 83.2832 28.0304 83.1623 27.8072C83.0391 27.5798 82.9328 27.333 82.8433 27.0691C82.7515 26.8073 82.708 26.5584 82.708 26.3223C82.708 25.5284 82.8192 24.8245 83.0463 24.2108C83.2783 23.5993 83.5804 23.0692 83.955 22.6229C84.3272 22.1766 84.7332 21.8032 85.173 21.4985C85.6104 21.1959 86.043 20.9534 86.4683 20.7689C86.8937 20.5801 87.2731 20.4492 87.609 20.3741C87.9425 20.2947 88.1818 20.2539 88.3243 20.2539C88.4017 20.2539 88.4983 20.3097 88.6143 20.417C88.7303 20.52 88.8463 20.6444 88.9623 20.7861C89.0783 20.9234 89.175 21.0479 89.2523 21.1552C89.3297 21.2582 89.3683 21.3097 89.3683 21.3097C89.001 21.2131 88.5902 21.2388 88.1407 21.3869C87.696 21.5371 87.2513 21.7796 86.8067 22.1165C86.362 22.4491 85.9584 22.8547 85.5983 23.3353C85.2358 23.816 84.9531 24.3482 84.7477 24.9318C84.5471 25.5112 84.4577 26.1206 84.477 26.7601C84.5012 27.4017 84.6824 28.0454 85.0183 28.6913C85.0183 28.6913 85.0232 28.6913 85.0377 28.6913C85.0498 28.687 85.0618 28.6784 85.0763 28.6656C85.1585 28.6377 85.3228 28.554 85.5693 28.4167C85.8134 28.2793 86.1058 28.0712 86.449 27.7901C86.7898 27.5047 87.1547 27.1292 87.5413 26.6657C87.9328 26.1979 88.3268 25.6185 88.7207 24.9318C88.9454 24.5155 89.088 24.1207 89.146 23.7473C89.2088 23.3697 89.2258 23.0392 89.1943 22.7517C89.1605 22.4663 89.117 22.2409 89.059 22.0736C89.0058 21.9019 88.9817 21.8161 88.9817 21.8161L89.3683 21.7045C89.3683 21.7045 89.3925 21.7989 89.4457 21.9877C89.5037 22.1723 89.5472 22.4212 89.581 22.7345C89.6124 23.0499 89.6052 23.404 89.5617 23.7988C89.5158 24.1937 89.3877 24.6035 89.175 25.0262C88.7545 25.891 88.276 26.6056 87.7347 27.1721C87.1982 27.7343 86.71 28.172 86.2653 28.4853C86.1735 28.5669 86.0768 28.6398 85.9753 28.7085C85.7627 28.8523 85.5693 28.9638 85.3953 29.0432C85.2262 29.1226 85.1295 29.1677 85.1053 29.1806Z" fill="#DB6956"/>
<path d="M95.874 29.1806V29.172L94.4627 28.5368L93.2737 24.6314L93.1577 24.6572C92.9257 25.2022 92.6937 25.7387 92.4617 26.2708C92.2345 26.803 92.0267 27.2901 91.8334 27.73C91.64 28.1656 91.4854 28.5175 91.3694 28.7857C91.2534 29.0497 91.1954 29.1806 91.1954 29.1806C91.1301 29.1334 91.0745 29.1033 91.031 29.0862C90.9924 29.0647 90.9392 29.0347 90.8764 29.0003C90.8184 28.9617 90.7314 28.893 90.6154 28.7943C90.4921 28.7042 90.3834 28.6098 90.2867 28.5111C90.1949 28.4081 90.1514 28.3566 90.1514 28.3566L93.061 20.2539C93.061 20.2539 93.1094 20.2839 93.206 20.3397C93.3027 20.3977 93.4211 20.4685 93.5637 20.5543C93.7111 20.6402 93.8489 20.726 93.9794 20.8118C94.1147 20.8934 94.2138 20.962 94.279 21.0178C94.3612 21.0758 94.4144 21.1208 94.4337 21.1552C94.453 21.1852 94.4627 21.2281 94.4627 21.2839C94.4627 21.3697 94.3805 21.6229 94.221 22.0392C94.0664 22.4577 93.8682 22.9577 93.6314 23.5413C93.9069 23.2967 94.2307 23.0156 94.598 22.7002C94.9702 22.3804 95.3448 22.0628 95.7194 21.7474C96.0915 21.4341 96.425 21.1594 96.715 20.9234C97.0099 20.6895 97.2225 20.535 97.353 20.4599L97.44 20.2539C97.44 20.2539 97.5101 20.2968 97.6527 20.3827C97.8001 20.4642 97.9572 20.5586 98.1264 20.6659C98.3004 20.7689 98.4212 20.8526 98.4937 20.9148C98.5638 20.9792 98.6049 21.0221 98.6194 21.0436C98.6387 21.0672 98.6484 21.1037 98.6484 21.1552C98.6484 21.2582 98.6 21.4041 98.5034 21.5929C98.4067 21.7817 98.2907 21.9749 98.1554 22.168C98.02 22.3633 97.904 22.5263 97.8074 22.6572C97.7107 22.7838 97.6624 22.8461 97.6624 22.8461C97.5705 22.7838 97.5005 22.7409 97.4497 22.7173C97.4038 22.6894 97.3047 22.6186 97.15 22.5027C97.0461 22.4233 96.9519 22.3397 96.8697 22.2538C96.7851 22.168 96.744 22.1251 96.744 22.1251L97.0437 21.3354C96.8117 21.5371 96.5314 21.7689 96.2027 22.0307C95.8789 22.2882 95.5405 22.5585 95.1877 22.8375C94.8325 23.1186 94.4917 23.3868 94.163 23.6443C93.8344 23.8975 93.5492 24.1121 93.3124 24.2881C93.3124 24.2881 93.3075 24.2924 93.3027 24.2967C93.3027 24.3031 93.3027 24.3095 93.3027 24.3138C93.5202 24.2752 93.7715 24.2366 94.0567 24.2022C94.3467 24.1679 94.5594 24.1593 94.6947 24.1765C94.714 24.1765 94.7551 24.2859 94.8204 24.5027C94.8832 24.7151 94.9605 24.9876 95.0524 25.3181C95.149 25.6507 95.2457 26.0026 95.3424 26.3738C95.4439 26.7472 95.5405 27.0991 95.6324 27.4296C95.7218 27.7622 95.7919 28.0347 95.845 28.245C95.903 28.451 95.932 28.554 95.932 28.554C95.932 28.554 95.9804 28.5497 96.077 28.5368C96.1785 28.5261 96.3211 28.4832 96.5024 28.4081C96.6764 28.3351 96.8431 28.245 97.005 28.142C97.1645 28.039 97.2467 27.9875 97.2467 27.9875L97.3434 28.1162C97.3434 28.1162 97.3047 28.1742 97.2274 28.2879C97.15 28.4038 96.9954 28.5433 96.7634 28.7085C96.5555 28.8415 96.3719 28.9467 96.2124 29.0261C96.0505 29.1055 95.9465 29.1548 95.903 29.172V29.1806L95.8934 29.172L95.874 29.1806Z" fill="#DB6956"/>
<path d="M98.0859 28.3566L101.015 20.2539C101.015 20.2539 101.063 20.2839 101.16 20.3397C101.257 20.3977 101.375 20.4685 101.518 20.5543C101.658 20.6402 101.798 20.726 101.933 20.8118C102.069 20.8934 102.168 20.962 102.233 21.0178C102.303 21.0758 102.349 21.1208 102.368 21.1552C102.392 21.1852 102.407 21.2281 102.407 21.2839C102.407 21.359 102.344 21.5564 102.223 21.8762C102.107 22.198 101.953 22.595 101.759 23.0692C101.566 23.5456 101.353 24.0563 101.121 24.6057C100.889 25.155 100.652 25.7 100.416 26.2365C100.184 26.7751 99.9709 27.2665 99.7776 27.7128C99.5843 28.1592 99.4248 28.5175 99.3039 28.7857C99.1879 29.0497 99.1299 29.1806 99.1299 29.1806C99.0647 29.1334 99.0091 29.1033 98.9656 29.0862C98.9269 29.0647 98.8786 29.0347 98.8206 29.0003C98.7674 28.9617 98.6804 28.893 98.5596 28.7943C98.4364 28.7042 98.3276 28.6098 98.2309 28.5111C98.1343 28.4081 98.0859 28.3566 98.0859 28.3566Z" fill="#DB6956"/>
<path d="M105.897 27.4639L107.076 26.7858C107.076 26.7858 107.11 26.8159 107.182 26.8717C107.253 26.9296 107.337 26.9983 107.434 27.0777C107.685 26.8094 107.939 26.4983 108.197 26.1421C108.454 25.7816 108.715 25.3782 108.98 24.9318C109.205 24.5155 109.348 24.1207 109.406 23.7473C109.469 23.3697 109.486 23.0392 109.454 22.7517C109.42 22.4663 109.377 22.2409 109.319 22.0736C109.266 21.9019 109.241 21.8161 109.241 21.8161L109.628 21.7045C109.628 21.7045 109.652 21.7989 109.705 21.9877C109.763 22.1723 109.807 22.4212 109.841 22.7345C109.872 23.0499 109.865 23.404 109.821 23.7988C109.776 24.1937 109.647 24.6035 109.435 25.0262C109.203 25.5026 108.947 25.9339 108.671 26.3223C108.393 26.7129 108.113 27.0583 107.83 27.3609C108.048 27.5218 108.289 27.6935 108.555 27.8759C108.826 28.0604 109.092 28.2321 109.357 28.3909C109.628 28.5454 109.87 28.6634 110.082 28.7428C110.095 28.7493 110.039 28.7664 109.918 28.7943C109.795 28.8244 109.638 28.8608 109.444 28.9059C109.251 28.9531 109.058 28.996 108.864 29.0347C108.671 29.0754 108.507 29.1076 108.371 29.1377C108.236 29.1656 108.168 29.1806 108.168 29.1806L106.883 28.2107C106.818 28.2622 106.757 28.3115 106.699 28.3566C106.641 28.4038 106.583 28.4467 106.525 28.4853C106.433 28.5669 106.337 28.6398 106.235 28.7085C106.022 28.8523 105.829 28.9638 105.655 29.0432C105.486 29.1226 105.389 29.1677 105.365 29.1806C105.3 29.1741 105.167 29.1419 104.969 29.0862C104.775 29.0239 104.575 28.9488 104.369 28.863C104.169 28.7729 104.024 28.687 103.934 28.6055C103.915 28.5883 103.852 28.5089 103.751 28.3652C103.654 28.2171 103.543 28.0304 103.422 27.8072C103.299 27.5798 103.193 27.333 103.103 27.0691C103.011 26.8073 102.968 26.5584 102.968 26.3223C102.968 25.5284 103.079 24.8245 103.306 24.2108C103.538 23.5993 103.84 23.0692 104.215 22.6229C104.587 22.1766 104.993 21.8032 105.433 21.4985C105.87 21.1959 106.303 20.9534 106.728 20.7689C107.153 20.5801 107.533 20.4492 107.869 20.3741C108.202 20.2947 108.442 20.2539 108.584 20.2539C108.661 20.2539 108.758 20.3097 108.874 20.417C108.99 20.52 109.106 20.6444 109.222 20.7861C109.338 20.9234 109.435 21.0479 109.512 21.1552C109.589 21.2582 109.628 21.3097 109.628 21.3097C109.628 21.3097 109.58 21.3054 109.483 21.2925C109.391 21.2753 109.205 21.2667 108.922 21.2667C108.683 21.2667 108.386 21.3333 108.033 21.4642C107.685 21.5908 107.318 21.7903 106.931 22.065C106.549 22.3397 106.189 22.6959 105.848 23.1293C105.513 23.5649 105.242 24.0821 105.036 24.6829C104.829 25.2837 104.727 25.9768 104.727 26.7601C104.727 27.1613 104.771 27.5068 104.862 27.7987C104.952 28.0862 105.041 28.3051 105.133 28.4596C105.23 28.6141 105.278 28.6913 105.278 28.6913C105.278 28.6913 105.283 28.6913 105.297 28.6913C105.31 28.687 105.322 28.6784 105.336 28.6656C105.406 28.6377 105.549 28.569 105.761 28.4596C105.974 28.3458 106.228 28.1742 106.525 27.9446L105.897 27.4639Z" fill="#DB6956"/>
</svg>
